<svg id="Calque_1" data-name="Calque 1" xmlns="http://www.w3.org/2000/svg" viewBox="0 0 1878 1024"><defs><style>.cls-1{fill:#d91e18;}.cls-2{fill:#e6e6e6;}</style></defs><title>Test</title><path class="cls-1" d="M873.74,271.06c-19.9,59.94-47.24,142.57-65,195.41h18.83l21-64.23h74.41l21.37,64.23h20.23L896.88,271.06ZM853.33,385.69c14.77-44.84,25.37-74.8,31.07-98.34h.52c3.56,14.6,14.78,44.11,32.9,98.34Z"/><path class="cls-1" d="M1191.73,372.45c0-167.34-135.66-303-303-303s-303,135.66-303,303a301.8,301.8,0,0,0,74.72,199.23l57.93,75.83a916.7,916.7,0,0,1,53.87,78.69l73.14,119.74c4.55,15.48,22,27,42.84,27,16.5,0,30.87-7.23,38.4-17.92h.31l78.4-128.34A918.11,918.11,0,0,1,1059.21,648l62.71-82.1q7.88-9.46,15-19.58l3.35-4.38h-.31A301.59,301.59,0,0,0,1191.73,372.45ZM888.73,566c-106.87,0-193.5-86.63-193.5-193.5S781.86,179,888.73,179s193.5,86.63,193.5,193.5S995.6,566,888.73,566Z"/><path class="cls-2" d="M845.39,845.94c4.55,15.48,22,27,42.84,27,16.5,0,30.87-7.23,38.4-17.92h.31l78.4-128.34q9.61-15.72,19.84-31.05c-44.87,0-103.58-9-145.45-48.19-77-72-219-76-219-76l-.33.17.05.06,57.93,75.83a916.7,916.7,0,0,1,53.87,78.69Z"/></svg>