<svg id="Calque_1" data-name="Calque 1" xmlns="http://www.w3.org/2000/svg" viewBox="0 0 1891 1035"><defs><style>.cls-1{fill:#0486e3;}.cls-2{fill:#e6e6e6;}</style></defs><title>Test</title><path class="cls-1" d="M814.24,405.41l-27.93,52.73,58.7,11c.2-2.11.33-4.29.33-6.47A68.5,68.5,0,0,0,814.24,405.41Z"/><path class="cls-1" d="M773.94,468.19a6.22,6.22,0,0,1-2.59-8.41l31.9-60.27a68.5,68.5,0,1,0,39.43,81.86l-67-12.56A6.47,6.47,0,0,1,773.94,468.19Z"/><path class="cls-1" d="M851.57,308.05a1,1,0,0,0-1-1H804.33a2.61,2.61,0,0,0-1.79.74,2.57,2.57,0,0,0,0,3.64l3.54,3.55a15.52,15.52,0,0,0,15.75,3.73L850.87,309A1,1,0,0,0,851.57,308.05Z"/><path class="cls-1" d="M882.4,470.47a12.4,12.4,0,0,0-11.82,21.81l-3.15-9.46,11.83-3.94,4.24,12.73a12.41,12.41,0,0,0-1.1-21.14Z"/><path class="cls-1" d="M820.06,394.37a80.89,80.89,0,0,1,37.73,68.32c0,.86-.1,1.69-.13,2.54a24.86,24.86,0,0,1,5.56-4.87l-29.43-91.92Z"/><path class="cls-1" d="M845.15,363.08l29.93,93.52c.47,0,.91-.13,1.39-.13a24.48,24.48,0,0,1,9.06,1.77L952.13,366l-1.24-2.88Z"/><path class="cls-1" d="M1191.91,419.12c0-167.34-135.66-303-303-303s-303,135.66-303,303a301.8,301.8,0,0,0,74.72,199.23l57.93,75.83a919,919,0,0,1,53.87,78.69l73.14,119.74c4.55,15.48,22,27,42.84,27,16.5,0,30.87-7.23,38.4-17.92h.31l78.4-128.34a918.11,918.11,0,0,1,53.87-78.68l62.71-82.1q7.88-9.47,15-19.57l3.35-4.39h-.31A301.59,301.59,0,0,0,1191.91,419.12ZM1039.13,534a80.86,80.86,0,0,1-76-142.74l-5.21-12-62.35,86.35a24.6,24.6,0,0,1-8.1,38l2.84,8.5,17.43.41L907.45,525l-21.79-.51a6.24,6.24,0,0,1-5.76-4.26l-4.68-14a24.82,24.82,0,0,1-22.12-16.52q-1,2.73-2.12,5.39a80.94,80.94,0,1,1-41.87-106.53l18.29-34.55a6,6,0,0,1,1.24-1.6L822,331.45a27.38,27.38,0,0,1-24.71-7.66l-3.55-3.54a15,15,0,0,1,10.63-25.66h46.22a13.46,13.46,0,0,1,4.26,26.23l-20.95,7,7.3,22.81H945.47L933,322a6.08,6.08,0,0,1-.52-2.49,6.22,6.22,0,0,1,6.23-6.22h46.69a21.79,21.79,0,1,1,0,43.58H969.86V344.4h15.56a9.34,9.34,0,1,0,0-18.68h-37.2l26.33,60.55A80.84,80.84,0,0,1,1039.13,534Z"/><path class="cls-1" d="M979.52,397.69l27.18,62.51-11.42,5-27.19-62.53a68.62,68.62,0,1,0,11.43-5Z"/><path class="cls-2" d="M845,893.9c4.54,15.48,22,27,42.83,27,16.5,0,30.87-7.23,38.4-17.92h.31L1005,774.66q9.62-15.74,19.84-31c-44.86-.06-103.58-9-145.45-48.19-77-72-219-76-219-76l-.33.16,0,.06L718,695.48a918.11,918.11,0,0,1,53.87,78.68Z"/></svg>